<svg xmlns="http://www.w3.org/2000/svg" viewBox="0 0 100 100">
  <defs>
    <linearGradient id="g" x1="0%" y1="0%" x2="100%" y2="100%">
      <stop offset="0%" style="stop-color:#001F3F"/>
      <stop offset="100%" style="stop-color:#003366"/>
    </linearGradient>
  </defs>
  <circle cx="50" cy="50" r="45" fill="none" stroke="#FF8C00" stroke-width="2" stroke-dasharray="15 10" opacity="0.3"/>
  <path d="M50 5 A45 45 0 0 1 95 50" fill="none" stroke="#FF8C00" stroke-width="3" stroke-linecap="round"/>
  <path d="M50 95 A45 45 0 0 1 5 50" fill="none" stroke="#FF8C00" stroke-width="3" stroke-linecap="round"/>
  <path d="M50 27 L67 40 L60 68 L40 68 L33 40 Z" fill="url(#g)" stroke="#ffffff" stroke-width="1.5" stroke-linejoin="round"/>
  <path d="M33 40 L67 40 M50 27 L41 68 M50 27 L59 68" fill="none" stroke="#ffffff" stroke-width="1.2" stroke-linejoin="round" stroke-linecap="round" opacity="0.6"/>
  <path d="M18 68 Q18 58, 22 54 Q24 60, 26 58 Q26 52, 22 48 Q28 50, 30 56 Q32 62, 26 68 Q22 72, 18 68Z" fill="#FF8C00" opacity="0.85"/>
  <g stroke="#003366" stroke-width="2" stroke-linecap="round" opacity="0.85">
    <line x1="76" y1="28" x2="76" y2="44"/>
    <line x1="68" y1="36" x2="84" y2="36"/>
    <line x1="70.4" y1="30.4" x2="81.6" y2="41.6"/>
    <line x1="81.6" y1="30.4" x2="70.4" y2="41.6"/>
  </g>
</svg>
